<svg width="60" height="53" viewBox="0 0 60 53" fill="none" xmlns="http://www.w3.org/2000/svg">
<path d="M41.5415 45.4281C44.7697 44.9862 47.1994 43.0631 47.1994 40.7578C47.1994 38.1257 44.0322 35.9919 40.1252 35.9919H32.9596M41.5415 45.4281C41.0839 45.4908 40.6102 45.5237 40.1252 45.5237H39.0714V47.8056C40.2756 47.6535 42.9098 47.6231 43.8129 48.7183C44.7161 49.8135 44.7412 50.6958 44.6408 51H20.6437M41.5415 45.4281L46.0708 46.2845C47.0342 46.5684 50.3139 49.7662 51.8192 51C51.8192 51 55.3583 51 57.4496 51C57.7713 48.0348 55.078 48.0351 53.3721 46.9872L53.7747 30.2027C53.7747 28.0098 53.7747 27.9171 53.7747 27.377C53.7747 26.8368 52.236 21.6956 51.8192 21.352C50.6028 15.7026 58.0517 18.7992 57.8126 15.2027C58.8692 14.3935 55.195 10.8093 53.3721 9.4731C54.0504 8.34589 52.8499 4.02136 52.1649 2L45.7133 6.4333C45.6823 6.43301 45.6512 6.43287 45.6201 6.43287C44.5387 6.43287 43.477 6.53191 42.4614 6.71768C42.2065 4.86236 41.3822 1.39566 40.1252 2.37136C38.8682 3.34706 35.955 8.72079 34.6556 11.2857C34.2028 12.061 33.9529 12.9007 33.9529 13.783C33.9529 15.9464 33.2555 18.6694 34.4941 20.7785H34.4052C21.7688 20.7785 11.525 27.3206 11.525 35.3908C11.525 39.5376 16.2994 44.585 20.6437 47.2447V51M20.6437 51C14.077 50.8993 5.00928 50.4996 2.55507 40.7578C0.592424 32.9672 3.72929 29.631 13.6479 22.9488C18.2033 19.8798 22.2877 15.3472 16.1874 11.2857" stroke="black" stroke-width="4" stroke-linecap="round" stroke-linejoin="round"/>
</svg>
