<svg width="31" height="31" viewBox="0 0 31 31" fill="none" xmlns="http://www.w3.org/2000/svg">
<path fill-rule="evenodd" clip-rule="evenodd" d="M25.0826 7.52479L5.01654 7.52479C4.3239 7.52479 3.76241 8.08628 3.76241 8.77892L3.76241 11.9142H26.3368L26.3368 8.77892C26.3368 8.08628 25.7753 7.52479 25.0826 7.52479ZM26.3368 14.4225H3.76241V21.3202C3.76241 22.0129 4.3239 22.5743 5.01654 22.5743L25.0826 22.5743C25.7753 22.5743 26.3368 22.0129 26.3368 21.3202V14.4225ZM5.01654 5.01653L25.0826 5.01653C27.1605 5.01653 28.845 6.701 28.845 8.77892L28.845 21.3202C28.845 23.3981 27.1605 25.0826 25.0826 25.0826L5.01654 25.0826C2.93863 25.0826 1.25415 23.3981 1.25415 21.3202L1.25415 8.77892C1.25415 6.70101 2.93863 5.01653 5.01654 5.01653Z" fill="black"/>
</svg>
