<svg width="20" height="26" viewBox="0 0 20 26" fill="none" xmlns="http://www.w3.org/2000/svg">
<path fill-rule="evenodd" clip-rule="evenodd" d="M11.6465 0.556012C12.1561 0.700826 12.5198 1.1503 12.5551 1.67897L13.1041 9.91424H18.2014C18.6712 9.91424 19.1016 10.1768 19.3165 10.5945C19.5315 11.0122 19.495 11.515 19.2219 11.8973L9.81596 25.0657C9.508 25.4968 8.96232 25.6879 8.45266 25.5431C7.943 25.3983 7.57933 24.9488 7.54408 24.4202L6.99507 16.1849H1.89772C1.42794 16.1849 0.997551 15.9223 0.782588 15.5046C0.567625 15.0869 0.604137 14.5841 0.877192 14.2018L10.2832 1.03344C10.5911 0.602297 11.1368 0.411199 11.6465 0.556012ZM4.33473 13.6766H8.16837C8.82863 13.6766 9.3758 14.1885 9.41972 14.8473L9.81349 20.7538L15.7644 12.4225H11.9308C11.2705 12.4225 10.7233 11.9106 10.6794 11.2518L10.2856 5.34535L4.33473 13.6766Z" fill="black"/>
</svg>
