<svg width="23" height="24" viewBox="0 0 23 24" fill="none" xmlns="http://www.w3.org/2000/svg">
<path fill-rule="evenodd" clip-rule="evenodd" d="M7.17398 0.502653C7.66375 0.992421 7.66375 1.78649 7.17398 2.27626L4.66572 4.78452C4.17595 5.27429 3.38188 5.27429 2.89211 4.78452C2.40234 4.29475 2.40234 3.50068 2.89211 3.01091L5.40037 0.502653C5.89014 0.0128843 6.68421 0.0128843 7.17398 0.502653ZM12.1905 0.502653C12.6803 0.992421 12.6803 1.78649 12.1905 2.27626L9.68224 4.78452C9.19247 5.27429 8.3984 5.27429 7.90863 4.78452C7.41886 4.29475 7.41886 3.50068 7.90863 3.01091L10.4169 0.502653C10.9067 0.0128843 11.7007 0.0128843 12.1905 0.502653ZM17.207 0.502653C17.6968 0.992421 17.6968 1.78649 17.207 2.27626L14.6988 4.78452C14.209 5.27429 13.4149 5.27429 12.9252 4.78452C12.4354 4.29475 12.4354 3.50068 12.9252 3.01091L15.4334 0.502653C15.9232 0.0128843 16.7173 0.0128843 17.207 0.502653ZM0.0165253 10.1684C0.0165253 8.09046 1.70101 6.40598 3.77892 6.40598H16.3202C17.9833 6.40598 19.5783 7.06663 20.7542 8.24261C21.9302 9.41858 22.5909 11.0135 22.5909 12.6766C22.5909 14.3397 21.9302 15.9347 20.7542 17.1106C19.8784 17.9865 18.7701 18.5765 17.5743 18.8206V20.2014C17.5743 22.2793 15.8899 23.9638 13.812 23.9638H3.77892C1.70101 23.9638 0.0165253 22.2793 0.0165253 20.2014V10.1684ZM17.5743 16.2238C18.0985 16.0385 18.5801 15.7376 18.9806 15.337C19.6862 14.6315 20.0826 13.6745 20.0826 12.6766C20.0826 11.6788 19.6862 10.7218 18.9806 10.0162C18.5801 9.61564 18.0985 9.31472 17.5743 9.12941V16.2238ZM15.0661 8.91424H3.77892C3.08628 8.91424 2.52479 9.47573 2.52479 10.1684V20.2014C2.52479 20.894 3.08628 21.4555 3.77892 21.4555H13.812C14.5046 21.4555 15.0661 20.894 15.0661 20.2014V8.91424Z" fill="black"/>
</svg>
