<svg width="40 " height="40" viewBox="0 0 114 114" fill="none" xmlns="http://www.w3.org/2000/svg">
<g clip-path="url(#clip0_1563_181)">
<rect width="114" height="114" fill="white"/>
<path d="M79.2585 101.378C85.4845 100.377 90.1702 96.0206 90.1702 90.7983C90.1702 84.8357 84.062 80.0021 76.5272 80.0021H62.7079M79.2585 101.378C78.376 101.52 77.4626 101.594 76.5272 101.594H74.4948V106.764C76.8172 106.419 81.8974 106.35 83.6392 108.831C85.381 111.312 85.4294 113.311 85.2358 114H38.9557M79.2585 101.378L87.9937 103.318C89.8517 103.961 96.1769 111.205 99.0798 114C99.0798 114 105.905 114 109.938 114C110.559 107.283 105.365 107.283 102.075 104.91L102.851 66.8876C102.851 61.9201 102.851 61.7102 102.851 60.4866C102.851 59.263 99.8837 47.6166 99.0798 46.8381C96.734 34.0405 111.1 41.0553 110.639 32.9082C112.676 31.0751 105.59 22.9558 102.075 19.9289C103.383 17.3754 101.068 7.579 99.7466 3L87.3042 13.0428C87.2444 13.0421 87.1845 13.0418 87.1245 13.0418C85.0389 13.0418 82.9913 13.2662 81.0328 13.687C80.541 9.48413 78.9515 1.63098 76.5272 3.84124C74.1029 6.05151 68.4847 18.2247 65.9786 24.0349C65.1054 25.7912 64.6235 27.6934 64.6235 29.6921C64.6235 34.5928 63.2785 40.7613 65.6673 45.539H65.4958C41.1256 45.539 21.3697 60.359 21.3697 78.6404C21.3697 88.0342 30.5774 99.4681 38.9557 105.493V114M38.9557 114C26.2914 113.772 8.80361 112.866 4.07049 90.7983C0.285389 73.1502 6.33506 65.5927 25.4639 50.4554C34.2493 43.5032 42.1263 33.2355 30.3615 24.0349" stroke="black" stroke-width="4" stroke-linecap="round" stroke-linejoin="round"/>
</g>
<defs>
<clipPath id="clip0_1563_181">
<rect width="114" height="114" fill="white"/>
</clipPath>
</defs>
</svg>
