<svg width="31" height="31" viewBox="0 0 31 31" fill="none" xmlns="http://www.w3.org/2000/svg">
<path fill-rule="evenodd" clip-rule="evenodd" d="M12.5413 5.01652C11.8487 5.01652 11.2872 5.57801 11.2872 6.27065H18.812C18.812 5.57801 18.2505 5.01652 17.5578 5.01652H12.5413ZM21.3202 8.77891H8.77891V21.3202C8.77891 23.3981 10.4634 25.0826 12.5413 25.0826H17.5578C19.6357 25.0826 21.3202 23.3981 21.3202 21.3202V8.77891ZM6.27065 8.77891V21.3202C6.27065 24.7834 9.07812 27.5909 12.5413 27.5909H17.5578C21.021 27.5909 23.8285 24.7834 23.8285 21.3202V8.77891H25.0826C25.7752 8.77891 26.3367 8.21742 26.3367 7.52478C26.3367 6.83214 25.7752 6.27065 25.0826 6.27065H21.3202C21.3202 4.19274 19.6357 2.50826 17.5578 2.50826H12.5413C10.4634 2.50826 8.77891 4.19274 8.77891 6.27065H5.01652C4.32388 6.27065 3.76239 6.83214 3.76239 7.52478C3.76239 8.21742 4.32388 8.77891 5.01652 8.77891H6.27065Z" fill="black"/>
</svg>
