<svg width="33" height="31" viewBox="0 0 33 31" fill="none" xmlns="http://www.w3.org/2000/svg">
<path d="M21.082 19.4234C19.8842 20.5321 18.2599 21.1549 16.5663 21.1549C14.8727 21.1549 13.2484 20.5321 12.0506 19.4234M11.776 12.2851H11.7919M21.3566 12.2851H21.3726M30.9372 15.2422C30.9372 16.9896 30.5655 18.7199 29.8433 20.3344C29.1211 21.9488 28.0626 23.4157 26.7281 24.6513C25.3936 25.887 23.8094 26.8671 22.0658 27.5359C20.3222 28.2046 18.4535 28.5488 16.5663 28.5488C14.6791 28.5488 12.8103 28.2046 11.0667 27.5359C9.32318 26.8671 7.73894 25.887 6.40447 24.6513C5.07 23.4157 4.01145 21.9488 3.28924 20.3344C2.56703 18.7199 2.19531 16.9896 2.19531 15.2422C2.19531 11.713 3.70939 8.32843 6.40447 5.83296C9.09955 3.33749 12.7549 1.93555 16.5663 1.93555C20.3777 1.93555 24.033 3.33749 26.7281 5.83296C29.4232 8.32843 30.9372 11.713 30.9372 15.2422Z" stroke="#4857EC" stroke-width="3" stroke-linecap="round" stroke-linejoin="round"/>
</svg>
