<svg width="31" height="31" viewBox="0 0 31 31" fill="none" xmlns="http://www.w3.org/2000/svg">
<path fill-rule="evenodd" clip-rule="evenodd" d="M15.0496 2.50826C15.7422 2.50826 16.3037 3.06975 16.3037 3.76239V5.12056C19.8626 5.71762 22.5743 8.81277 22.5743 12.5413V20.0661H23.8285C24.5211 20.0661 25.0826 20.6276 25.0826 21.3202C25.0826 22.0128 24.5211 22.5743 23.8285 22.5743H18.812C18.812 24.6522 17.1275 26.3367 15.0496 26.3367C12.9717 26.3367 11.2872 24.6522 11.2872 22.5743H6.27066C5.57802 22.5743 5.01653 22.0128 5.01653 21.3202C5.01653 20.6276 5.57802 20.0661 6.27066 20.0661H7.52479V12.5413C7.52479 8.81277 10.2366 5.71762 13.7954 5.12056V3.76239C13.7954 3.06975 14.3569 2.50826 15.0496 2.50826ZM10.033 20.0661H20.0661V12.5413C20.0661 9.77075 17.8201 7.52478 15.0496 7.52478C12.279 7.52478 10.033 9.77075 10.033 12.5413V20.0661ZM13.7954 22.5743C13.7954 23.267 14.3569 23.8285 15.0496 23.8285C15.7422 23.8285 16.3037 23.267 16.3037 22.5743H13.7954Z" fill="black"/>
</svg>
